<?xml version="1.0" encoding="UTF-8" standalone="no"?>
<!-- Created with Inkscape (http://www.inkscape.org/) -->

<svg
   xmlns:dc="http://purl.org/dc/elements/1.1/"
   xmlns:cc="http://creativecommons.org/ns#"
   xmlns:rdf="http://www.w3.org/1999/02/22-rdf-syntax-ns#"
   xmlns:svg="http://www.w3.org/2000/svg"
   xmlns="http://www.w3.org/2000/svg"
   xmlns:sodipodi="http://sodipodi.sourceforge.net/DTD/sodipodi-0.dtd"
   xmlns:inkscape="http://www.inkscape.org/namespaces/inkscape"
   version="1.1"
   id="svg48"
   xml:space="preserve"
   width="297mm"
   height="210mm"
   viewBox="0 0 1122.5197 793.70078"
   sodipodi:docname="top-bottom.ai.svg"
   inkscape:version="0.92.2 (5c3e80d, 2017-08-06)"><metadata
     id="metadata54"><rdf:RDF><cc:Work
         rdf:about=""><dc:format>image/svg+xml</dc:format><dc:type
           rdf:resource="http://purl.org/dc/dcmitype/StillImage" /><dc:title></dc:title></cc:Work></rdf:RDF></metadata><defs
     id="defs52"><clipPath
       clipPathUnits="userSpaceOnUse"
       id="clipPath64"><path
         d="M 0,595.276 H 841.89 V 0 H 0 Z"
         id="path62"
         inkscape:connector-curvature="0" /></clipPath><clipPath
       clipPathUnits="userSpaceOnUse"
       id="clipPath224"><path
         d="M 0,595.276 H 841.89 V 0 H 0 Z"
         id="path222"
         inkscape:connector-curvature="0" /></clipPath></defs><sodipodi:namedview
     pagecolor="#ffffff"
     bordercolor="#666666"
     borderopacity="1"
     objecttolerance="10"
     gridtolerance="10"
     guidetolerance="10"
     inkscape:pageopacity="0"
     inkscape:pageshadow="2"
     inkscape:window-width="1200"
     inkscape:window-height="1883"
     id="namedview50"
     showgrid="false"
     inkscape:lockguides="true"
     showguides="true"
     units="mm"
     inkscape:document-units="in"
     inkscape:measure-start="1.07527,778.761"
     inkscape:measure-end="19.2353,779.388"
     inkscape:zoom="2.6304455"
     inkscape:cx="80.424449"
     inkscape:cy="710.26557"
     inkscape:window-x="1200"
     inkscape:window-y="0"
     inkscape:window-maximized="1"
     inkscape:current-layer="g56"><inkscape:grid
       type="xygrid"
       id="grid690"
       units="in" /></sodipodi:namedview><g
     id="g56"
     inkscape:groupmode="layer"
     inkscape:label="top-bottom"
     transform="matrix(1.3333333,0,0,-1.3333333,0,793.70077)"><path
       inkscape:connector-curvature="0"
       id="path68"
       style="fill:none;fill-opacity:1;fill-rule:nonzero;stroke:#000000;stroke-width:0.72000003;stroke-miterlimit:4;stroke-dasharray:none;stroke-opacity:1"
       d="m 25.568803,487.10496 c 0.01868,-0.83255 -0.740157,-3.39985 -2.642621,-3.39985 -0.543392,0 -1.062535,0.26801 -1.355099,0.71932 -0.287795,0.44478 -0.399097,0.99181 -0.399097,1.61214 0.0044,1.35066 0.533851,3.1237 1.638919,5.13298 1.076447,1.94167 1.671911,3.63487 1.661973,4.90284 0,0.66677 -0.149065,1.20891 -0.456337,1.67651 -0.31244,0.46474 -0.802565,0.87368 -1.551864,1.20605 -0.548161,0.24113 -1.076447,0.34948 -1.575715,0.34948 -1.081217,0 -2.113938,-0.49733 -3.03178,-1.38039 -0.92301,-0.88387 -1.715637,-2.14736 -2.268568,-3.58722 -0.43686,-1.12744 -1.090757,-3.48579 -1.090757,-5.91338 0,-0.98163 0.116072,-1.96855 0.365705,-2.89927 -2.41644,3.48376 -1.186953,8.17724 -0.172915,10.34864 -0.384388,0.15803 -0.778714,0.23909 -1.181786,0.23909 -0.02385,0 -0.0485,0 -0.06758,-0.003 -1.210009,-0.0273 -2.344492,-0.7849 -3.209465,-2.1217 -0.8602038,-1.33396 -1.4079674,-3.21493 -1.4031973,-5.30242 v -0.26353 c 0.02862,-1.5091 0.3462279,-2.90211 0.8510609,-4.06418 -1.1968913,1.41542 -2.484414,3.89229 -1.8647018,7.45874 -0.158605,0.0399 -0.3120424,0.0595 -0.4658773,0.0595 h -0.010335 c -0.095799,0 -0.1868279,-0.005 -0.2830244,-0.022 -0.6916609,-0.10183 -1.3022305,-0.56372 -1.7780454,-1.35676 -0.4650823,-0.78734 -0.7540694,-1.88302 -0.7540694,-3.1017 0,-0.36699 0.024248,-0.74335 0.077116,-1.12745 0.1919956,-1.37794 0.7206789,-2.57993 1.3936569,-3.40677 0.6717856,-0.83215 1.465208,-1.26512 2.2097372,-1.26512 1.0525965,0 1.9461906,0.62482 2.4693086,1.07042 0.864974,-1.10464 1.931483,-1.71561 3.032178,-1.71561 1.134085,0 2.301561,0.68144 3.108896,1.30422 0.556906,-0.49692 1.234654,-0.92501 2.071008,-1.25982 0.706368,-0.28308 1.368216,-0.4065 1.988326,-0.4065 5.948681,0 5.425165,5.70892 4.694946,6.51662" /><path
       style="color:#000000;font-style:normal;font-variant:normal;font-weight:normal;font-stretch:normal;font-size:medium;line-height:normal;font-family:sans-serif;font-variant-ligatures:normal;font-variant-position:normal;font-variant-caps:normal;font-variant-numeric:normal;font-variant-alternates:normal;font-feature-settings:normal;text-indent:0;text-align:start;text-decoration:none;text-decoration-line:none;text-decoration-style:solid;text-decoration-color:#000000;letter-spacing:normal;word-spacing:normal;text-transform:none;writing-mode:lr-tb;direction:ltr;text-orientation:mixed;dominant-baseline:auto;baseline-shift:baseline;text-anchor:start;white-space:normal;shape-padding:0;clip-rule:nonzero;display:inline;overflow:visible;visibility:visible;opacity:1;isolation:auto;mix-blend-mode:normal;color-interpolation:sRGB;color-interpolation-filters:linearRGB;solid-color:#000000;solid-opacity:1;vector-effect:none;fill:#000000;fill-opacity:1;fill-rule:nonzero;stroke:none;stroke-width:0.72000003;stroke-linecap:butt;stroke-linejoin:miter;stroke-miterlimit:4;stroke-dasharray:none;stroke-dashoffset:0;stroke-opacity:1;color-rendering:auto;image-rendering:auto;shape-rendering:auto;text-rendering:auto;enable-background:accumulate"
       d="m 20.873047,480.22852 c -0.667877,0 -1.376188,0.13311 -2.121094,0.43164 -0.773677,0.30972 -1.383774,0.72522 -1.931641,1.17578 -0.827469,-0.60865 -1.928365,-1.2461 -3.115234,-1.2461 -1.13129,0 -2.18323,0.63157 -3.058594,1.62696 -0.568188,-0.44838 -1.3860726,-0.98047 -2.4414059,-0.98047 -0.8840976,0 -1.7697619,0.50598 -2.4902343,1.39844 -0.7220443,0.88765 -1.2702827,2.14362 -1.4707032,3.58203 v 0.002 c -0.055172,0.40084 -0.080078,0.79293 -0.080078,1.17578 0,1.27559 0.2964805,2.42812 0.8027344,3.28516 l 0.00195,0.002 c 0.513454,0.85577 1.2176344,1.40439 2.0332031,1.52539 8.509e-4,1.3e-4 0.0011,0.002 0.00195,0.002 0.1179077,0.0199 0.2293565,0.0254 0.3339844,0.0254 h 0.011719 c 0.1844131,-10e-6 0.367907,-0.0238 0.5527344,-0.0703 l 0.3242187,-0.0801 -0.056641,-0.33007 c -0.3866937,-2.22543 0.060599,-3.83484 0.6835937,-5.17383 -0.1178799,0.62478 -0.3718883,1.15498 -0.3847656,1.83398 v 0.004 0.26758 c -0.00456,2.15014 0.5552123,4.09154 1.4609375,5.49609 v 0.002 c 0.9082935,1.40375 2.1466085,2.25092 3.5000005,2.28321 0.0014,3e-5 0.0025,0.002 0.0039,0.002 0.02688,0.001 0.06165,0.004 0.07617,0.004 0.451337,0 0.893931,-0.0931 1.318359,-0.26758 l 0.347656,-0.14258 -0.158203,-0.3418 c -0.488544,-1.04614 -1.039816,-2.73021 -1.167969,-4.55468 -0.07355,-1.0471 0.05884,-2.1218 0.34375,-3.17383 -0.005,0.14583 -0.05469,0.28593 -0.05469,0.43164 0,2.49223 0.660993,4.87067 1.115234,6.04297 h -0.002 c 0.56894,1.48155 1.383038,2.7856 2.355469,3.71679 0.966403,0.92978 2.089639,1.48047 3.28125,1.48047 0.551352,0 1.130892,-0.11945 1.720703,-0.3789 l 0.002,-0.002 c 0.796158,-0.35315 1.347982,-0.80572 1.703125,-1.33398 l 0.002,-0.002 h 0.002 c 0.347385,-0.52865 0.513025,-1.15244 0.513672,-1.8711 v -0.002 c 0.01031,-1.38231 -0.614203,-3.10992 -1.705078,-5.07813 l -0.002,-0.002 c -1.084408,-1.97241 -1.589655,-3.70191 -1.59375,-4.95898 2.69e-4,-0.5755 0.105107,-1.04746 0.341797,-1.41407 0.222213,-0.34278 0.627714,-0.55664 1.052734,-0.55664 0.789297,0 1.339349,0.52432 1.728516,1.20703 0.388786,0.68205 0.561034,1.52476 0.554687,1.82422 -6e-6,3e-4 7e-6,0.002 0,0.002 v 0.0195 l 0.701172,-0.004 c 0.0032,-0.005 0.0027,-0.0145 0.0059,-0.0195 h 0.0078 c 4.4e-5,-0.003 -0.0039,-0.009 -0.0039,-0.0117 0.209925,-0.33715 0.365641,-0.72554 0.417969,-1.30273 0.06291,-0.69395 0.009,-1.5296 -0.271485,-2.35157 -0.560918,-1.64392 -2.103855,-3.19921 -5.193359,-3.19921 z m 0,0.71875 c 2.859177,0 4.02978,1.30043 4.511719,2.71289 0.240969,0.70622 0.291053,1.44909 0.236328,2.05273 -0.0086,0.0953 -0.03564,0.0934 -0.05078,0.18164 -0.105882,-0.34655 -0.08345,-0.61976 -0.289062,-0.98047 -0.461198,-0.80907 -1.242301,-1.56836 -2.355469,-1.56836 -0.661764,0 -1.293335,0.32298 -1.65625,0.88282 -0.337933,0.52226 -0.457031,1.1452 -0.457031,1.80859 0.0047,1.44371 0.558829,3.26155 1.683594,5.30664 1.060712,1.91329 1.626222,3.5738 1.617187,4.72656 v 0.002 c 0,0.61311 -0.131952,1.07298 -0.398437,1.47851 -0.269844,0.40007 -0.69575,0.76339 -1.396485,1.07422 -0.505776,0.22219 -0.983084,0.32031 -1.429687,0.32031 -0.970824,0 -1.911969,-0.44491 -2.78125,-1.28125 h -0.002 c -0.873589,-0.83654 -1.644719,-2.05886 -2.181641,-3.45703 -0.419479,-1.08258 -1.066406,-3.42026 -1.066406,-5.7832 0,-0.95325 0.113145,-1.91046 0.353516,-2.80664 l -0.642579,-0.29883 c -0.02508,0.0362 -0.0245,0.0788 -0.04883,0.11523 l -0.0039,-0.002 c -0.0012,0.004 -7.74e-4,0.009 -0.002,0.0137 -1.199043,1.80049 -1.515832,3.87773 -1.382813,5.77149 0.122519,1.74425 0.604655,3.27148 1.082032,4.39258 -0.232835,0.064 -0.464422,0.14257 -0.703125,0.14257 -0.02385,0 -0.03964,-0.002 -0.01172,0.002 l -0.02539,-0.004 -0.02344,-0.002 c -1.064191,-0.024 -2.093662,-0.68845 -2.914063,-1.95508 l -0.002,-0.002 c -0.8136829,-1.26285 -1.3483725,-3.0825 -1.3437499,-5.10547 v -0.25782 c 0.027742,-1.46281 0.3353857,-2.81148 0.8203129,-3.92773 l -0.6054691,-0.375 c -0.018496,0.0219 -0.032254,0.0675 -0.050781,0.0898 l -0.00391,-0.002 c -0.0022,0.005 -0.00171,0.0125 -0.00391,0.0176 -1.1834549,1.43367 -2.377001,3.86887 -1.90625,7.27344 -0.029431,0.002 -0.060463,0.0117 -0.089844,0.0117 h -0.011719 c -0.083273,0 -0.1489668,-0.005 -0.21875,-0.0176 h -0.00586 -0.00586 c -0.5658618,-0.0833 -1.0822863,-0.45818 -1.5195313,-1.18555 -0.4239107,-0.71764 -0.7050781,-1.7562 -0.7050781,-2.91797 0,-0.35113 0.023655,-0.71076 0.074219,-1.07812 0.183479,-1.31682 0.6929851,-2.46257 1.3164063,-3.22852 l 0.00195,-0.002 c 0.6230988,-0.77184 1.3247268,-1.13086 1.9296875,-1.13086 0.9101328,0 1.7388554,0.56228 2.2343749,0.98437 l 0.287109,0.24414 0.230469,-0.29492 c 0.816142,-1.04227 1.780571,-1.57812 2.748047,-1.57812 0.989876,0 2.113677,0.63068 2.888672,1.22851 l 0.238281,0.1836 0.222657,-0.19922 c 0.52528,-0.4687 1.164486,-0.87492 1.964843,-1.19532 0.66783,-0.26763 1.281173,-0.38085 1.853516,-0.38085 z m 5.052734,6.15234 -0.0059,0.0137 h 0.0098 c 7.4e-5,-0.003 -0.004,-0.0103 -0.0039,-0.0137 z"
       id="path72"
       inkscape:connector-curvature="0" /><path
       style="color:#000000;font-style:normal;font-variant:normal;font-weight:normal;font-stretch:normal;font-size:medium;line-height:normal;font-family:sans-serif;font-variant-ligatures:normal;font-variant-position:normal;font-variant-caps:normal;font-variant-numeric:normal;font-variant-alternates:normal;font-feature-settings:normal;text-indent:0;text-align:start;text-decoration:none;text-decoration-line:none;text-decoration-style:solid;text-decoration-color:#000000;letter-spacing:normal;word-spacing:normal;text-transform:none;writing-mode:lr-tb;direction:ltr;text-orientation:mixed;dominant-baseline:auto;baseline-shift:baseline;text-anchor:start;white-space:normal;shape-padding:0;clip-rule:nonzero;display:inline;overflow:visible;visibility:visible;opacity:1;isolation:auto;mix-blend-mode:normal;color-interpolation:sRGB;color-interpolation-filters:linearRGB;solid-color:#000000;solid-opacity:1;vector-effect:none;fill:#000000;fill-opacity:1;fill-rule:nonzero;stroke:none;stroke-width:0.72000003;stroke-linecap:butt;stroke-linejoin:miter;stroke-miterlimit:4;stroke-dasharray:none;stroke-dashoffset:0;stroke-opacity:1;color-rendering:auto;image-rendering:auto;shape-rendering:auto;text-rendering:auto;enable-background:accumulate"
       d="m 30.162109,490.25 c -0.503253,0 -1.012185,0.17502 -1.398437,0.54102 -0.386253,0.36599 -0.632813,0.92053 -0.632813,1.60546 0,0.68209 0.249076,1.23748 0.634766,1.60157 0.38569,0.36408 0.891914,0.53906 1.388672,0.53906 0.809806,0 1.639225,-0.50359 1.894531,-1.45313 l -0.695312,-0.1875 c -0.174001,0.64715 -0.667839,0.91993 -1.199219,0.91993 -0.326477,0 -0.654249,-0.11693 -0.894531,-0.34375 -0.240283,-0.22683 -0.410157,-0.5628 -0.410157,-1.07618 0,-0.51909 0.168583,-0.85693 0.408203,-1.08398 0.239621,-0.22705 0.568017,-0.34375 0.904297,-0.34375 0.532194,0 1.016993,0.27356 1.191407,0.91992 l 0.695312,-0.1875 C 31.793936,490.75657 30.972692,490.25 30.162109,490.25 Z"
       id="path76"
       inkscape:connector-curvature="0" /><path
       style="color:#000000;font-style:normal;font-variant:normal;font-weight:normal;font-stretch:normal;font-size:medium;line-height:normal;font-family:sans-serif;font-variant-ligatures:normal;font-variant-position:normal;font-variant-caps:normal;font-variant-numeric:normal;font-variant-alternates:normal;font-feature-settings:normal;text-indent:0;text-align:start;text-decoration:none;text-decoration-line:none;text-decoration-style:solid;text-decoration-color:#000000;letter-spacing:normal;word-spacing:normal;text-transform:none;writing-mode:lr-tb;direction:ltr;text-orientation:mixed;dominant-baseline:auto;baseline-shift:baseline;text-anchor:start;white-space:normal;shape-padding:0;clip-rule:nonzero;display:inline;overflow:visible;visibility:visible;opacity:1;isolation:auto;mix-blend-mode:normal;color-interpolation:sRGB;color-interpolation-filters:linearRGB;solid-color:#000000;solid-opacity:1;vector-effect:none;fill:#000000;fill-opacity:1;fill-rule:nonzero;stroke:none;stroke-width:0.72000003;stroke-linecap:butt;stroke-linejoin:miter;stroke-miterlimit:4;stroke-dasharray:none;stroke-dashoffset:0;stroke-opacity:1;color-rendering:auto;image-rendering:auto;shape-rendering:auto;text-rendering:auto;enable-background:accumulate"
       d="m 35.626953,490.25 c -0.51501,0.005 -1.034998,0.18237 -1.433594,0.54492 -0.39907,0.36299 -0.660156,0.91608 -0.660156,1.59375 0,0.68601 0.263505,1.24489 0.667969,1.60938 0.404463,0.36448 0.931848,0.53906 1.455078,0.53906 0.517764,0 1.042027,-0.17775 1.443359,-0.54297 0.401332,-0.36522 0.664063,-0.9231 0.664063,-1.60547 0,-0.68308 -0.26728,-1.24304 -0.673828,-1.60742 -0.406069,-0.36395 -0.935571,-0.53711 -1.460938,-0.53125 z m 0.0078,0.71875 h 0.002 c 0.359666,-0.004 0.714574,0.11829 0.972656,0.34961 0.258082,0.23132 0.435547,0.56647 0.435547,1.07031 0,0.50496 -0.17669,0.84026 -0.431641,1.07227 -0.254951,0.23201 -0.605051,0.35547 -0.957031,0.35547 -0.362811,0 -0.716763,-0.12097 -0.972656,-0.35157 -0.255894,-0.2306 -0.431641,-0.56631 -0.431641,-1.07617 0,-0.50069 0.172842,-0.83243 0.425781,-1.0625 0.25294,-0.23007 0.602504,-0.35394 0.957032,-0.35742 z"
       id="path80"
       inkscape:connector-curvature="0" /><path
       style="color:#000000;font-style:normal;font-variant:normal;font-weight:normal;font-stretch:normal;font-size:medium;line-height:normal;font-family:sans-serif;font-variant-ligatures:normal;font-variant-position:normal;font-variant-caps:normal;font-variant-numeric:normal;font-variant-alternates:normal;font-feature-settings:normal;text-indent:0;text-align:start;text-decoration:none;text-decoration-line:none;text-decoration-style:solid;text-decoration-color:#000000;letter-spacing:normal;word-spacing:normal;text-transform:none;writing-mode:lr-tb;direction:ltr;text-orientation:mixed;dominant-baseline:auto;baseline-shift:baseline;text-anchor:start;white-space:normal;shape-padding:0;clip-rule:nonzero;display:inline;overflow:visible;visibility:visible;opacity:1;isolation:auto;mix-blend-mode:normal;color-interpolation:sRGB;color-interpolation-filters:linearRGB;solid-color:#000000;solid-opacity:1;vector-effect:none;fill:#000000;fill-opacity:1;fill-rule:nonzero;stroke:none;stroke-width:0.72000003;stroke-linecap:butt;stroke-linejoin:miter;stroke-miterlimit:4;stroke-dasharray:none;stroke-dashoffset:0;stroke-opacity:1;color-rendering:auto;image-rendering:auto;shape-rendering:auto;text-rendering:auto;enable-background:accumulate"
       d="m 39.482422,490.53711 v 2.06445 c 0,1.29567 1.206028,2.24577 2.43164,1.875 l -0.208984,-0.68945 c -0.791333,0.23939 -1.501953,-0.31429 -1.501953,-1.18555 v -2.06445 z"
       id="path84"
       inkscape:connector-curvature="0" /><path
       style="color:#000000;font-style:normal;font-variant:normal;font-weight:normal;font-stretch:normal;font-size:medium;line-height:normal;font-family:sans-serif;font-variant-ligatures:normal;font-variant-position:normal;font-variant-caps:normal;font-variant-numeric:normal;font-variant-alternates:normal;font-feature-settings:normal;text-indent:0;text-align:start;text-decoration:none;text-decoration-line:none;text-decoration-style:solid;text-decoration-color:#000000;letter-spacing:normal;word-spacing:normal;text-transform:none;writing-mode:lr-tb;direction:ltr;text-orientation:mixed;dominant-baseline:auto;baseline-shift:baseline;text-anchor:start;white-space:normal;shape-padding:0;clip-rule:nonzero;display:inline;overflow:visible;visibility:visible;opacity:1;isolation:auto;mix-blend-mode:normal;color-interpolation:sRGB;color-interpolation-filters:linearRGB;solid-color:#000000;solid-opacity:1;vector-effect:none;fill:#000000;fill-opacity:1;fill-rule:nonzero;stroke:none;stroke-width:0.72000003;stroke-linecap:butt;stroke-linejoin:miter;stroke-miterlimit:4;stroke-dasharray:none;stroke-dashoffset:0;stroke-opacity:1;color-rendering:auto;image-rendering:auto;shape-rendering:auto;text-rendering:auto;enable-background:accumulate"
       d="m 42.921875,490.53516 v 2.07617 c 0,0.51153 0.153897,0.99595 0.472656,1.35547 0.318759,0.35951 0.805298,0.57384 1.369141,0.5625 0.5918,-0.0105 1.059467,-0.23079 1.316406,-0.61133 0.257253,-0.381 0.310547,-0.84633 0.310547,-1.3457 v -2.03711 h -0.720703 v 2.03711 c 0,0.43908 -0.06527,0.76326 -0.185547,0.9414 -0.120279,0.17814 -0.288516,0.2874 -0.734375,0.29492 h -0.002 c -0.385403,0.008 -0.633945,-0.11672 -0.814453,-0.32031 -0.180509,-0.20359 -0.291016,-0.50827 -0.291016,-0.87695 v -2.07617 z"
       id="path88"
       inkscape:connector-curvature="0" /><path
       style="color:#000000;font-style:normal;font-variant:normal;font-weight:normal;font-stretch:normal;font-size:medium;line-height:normal;font-family:sans-serif;font-variant-ligatures:normal;font-variant-position:normal;font-variant-caps:normal;font-variant-numeric:normal;font-variant-alternates:normal;font-feature-settings:normal;text-indent:0;text-align:start;text-decoration:none;text-decoration-line:none;text-decoration-style:solid;text-decoration-color:#000000;letter-spacing:normal;word-spacing:normal;text-transform:none;writing-mode:lr-tb;direction:ltr;text-orientation:mixed;dominant-baseline:auto;baseline-shift:baseline;text-anchor:start;white-space:normal;shape-padding:0;clip-rule:nonzero;display:inline;overflow:visible;visibility:visible;opacity:1;isolation:auto;mix-blend-mode:normal;color-interpolation:sRGB;color-interpolation-filters:linearRGB;solid-color:#000000;solid-opacity:1;vector-effect:none;fill:#000000;fill-opacity:1;fill-rule:nonzero;stroke:none;stroke-width:0.72000003;stroke-linecap:butt;stroke-linejoin:miter;stroke-miterlimit:4;stroke-dasharray:none;stroke-dashoffset:0;stroke-opacity:1;color-rendering:auto;image-rendering:auto;shape-rendering:auto;text-rendering:auto;enable-background:accumulate"
       d="m 49.183594,490.25 c -0.503196,0 -1.010205,0.17506 -1.396485,0.54102 -0.38628,0.36595 -0.634765,0.92036 -0.634765,1.60546 0,0.68205 0.251065,1.23746 0.636718,1.60157 0.385654,0.36411 0.889803,0.53906 1.386719,0.53906 1.172911,0 1.908203,-0.96012 1.908203,-1.94141 v -0.35937 h -3.15039 c 0.04073,-0.3982 0.143479,-0.73039 0.347656,-0.92383 0.239593,-0.22699 0.566006,-0.34375 0.902344,-0.34375 0.532193,0 1.018563,0.27334 1.193359,0.91992 l 0.695313,-0.1875 C 50.81696,490.75678 49.994176,490.25 49.183594,490.25 Z m -1.097656,2.70703 h 2.154296 c -0.129975,0.46926 -0.432593,0.85938 -1.064453,0.85938 -0.326717,0 -0.652358,-0.115 -0.892578,-0.3418 -0.115349,-0.10891 -0.125383,-0.35074 -0.197265,-0.51758 z"
       id="path140"
       inkscape:connector-curvature="0" /><g
       id="g142"
       transform="translate(765.08486,11.93441)"><path
         d="m 0,0 c 0.047,-2.044 -1.863,-8.347 -6.648,-8.347 -1.368,0 -2.673,0.658 -3.41,1.765 -0.724,1.093 -1.004,2.435 -1.004,3.958 0.011,3.317 1.343,7.669 4.123,12.603 2.709,4.767 4.207,8.924 4.182,12.037 0,1.637 -0.376,2.968 -1.148,4.116 -0.786,1.141 -2.02,2.145 -3.904,2.961 -1.379,0.592 -2.708,0.857 -3.964,0.857 -2.72,0 -5.318,-1.22 -7.627,-3.388 -2.323,-2.171 -4.317,-5.272 -5.707,-8.807 -1.099,-2.768 -2.744,-8.558 -2.744,-14.518 0,-2.41 0.291,-4.833 0.919,-7.118 -6.079,8.552 -2.986,20.075 -0.434,25.407 -0.967,0.388 -1.96,0.587 -2.973,0.587 -0.06,0 -0.123,0 -0.17,-0.007 -3.045,-0.067 -5.898,-1.927 -8.075,-5.209 -2.164,-3.276 -3.541,-7.893 -3.529,-13.018 V 3.232 c 0.071,-3.705 0.871,-7.126 2.14,-9.978 -3.01,3.475 -6.25,9.556 -4.69,18.312 -0.399,0.098 -0.785,0.146 -1.173,0.146 h -0.025 c -0.241,0 -0.47,-0.013 -0.712,-0.055 -1.74,-0.249 -3.276,-1.383 -4.474,-3.33 -1.17,-1.933 -1.896,-4.623 -1.896,-7.615 0,-0.901 0.06,-1.825 0.194,-2.768 0.482,-3.383 1.812,-6.334 3.505,-8.364 1.69,-2.043 3.686,-3.106 5.56,-3.106 2.647,0 4.896,1.534 6.212,2.628 2.176,-2.712 4.859,-4.212 7.627,-4.212 2.853,0 5.791,1.673 7.822,3.202 1.401,-1.22 3.106,-2.271 5.209,-3.093 1.777,-0.695 3.443,-0.998 5.003,-0.998 C 3.153,-15.999 1.837,-1.983 0,0"
         style="fill:#000000;fill-opacity:1;fill-rule:nonzero;stroke:none"
         id="path144"
         inkscape:connector-curvature="0" /></g><g
       id="g146"
       transform="translate(765.08486,11.93441)"><path
         d="m 0,0 c 0.047,-2.044 -1.863,-8.347 -6.648,-8.347 -1.368,0 -2.673,0.658 -3.41,1.765 -0.724,1.093 -1.004,2.435 -1.004,3.958 0.011,3.317 1.343,7.669 4.123,12.603 2.709,4.767 4.207,8.924 4.182,12.037 0,1.637 -0.376,2.968 -1.148,4.116 -0.786,1.141 -2.02,2.145 -3.904,2.961 -1.379,0.592 -2.708,0.857 -3.964,0.857 -2.72,0 -5.318,-1.22 -7.627,-3.388 -2.323,-2.171 -4.317,-5.272 -5.707,-8.807 -1.099,-2.768 -2.744,-8.558 -2.744,-14.518 0,-2.41 0.291,-4.833 0.919,-7.118 -6.079,8.552 -2.986,20.075 -0.434,25.407 -0.967,0.388 -1.96,0.587 -2.973,0.587 -0.06,0 -0.123,0 -0.17,-0.007 -3.045,-0.067 -5.898,-1.927 -8.075,-5.209 -2.164,-3.276 -3.541,-7.893 -3.529,-13.018 V 3.232 c 0.071,-3.705 0.871,-7.126 2.14,-9.978 -3.01,3.475 -6.25,9.556 -4.69,18.312 -0.399,0.098 -0.785,0.146 -1.173,0.146 h -0.025 c -0.241,0 -0.47,-0.013 -0.712,-0.055 -1.74,-0.249 -3.276,-1.383 -4.474,-3.33 -1.17,-1.933 -1.896,-4.623 -1.896,-7.615 0,-0.901 0.06,-1.825 0.194,-2.768 0.482,-3.383 1.812,-6.334 3.505,-8.364 1.69,-2.043 3.686,-3.106 5.56,-3.106 2.647,0 4.896,1.534 6.212,2.628 2.176,-2.712 4.859,-4.212 7.627,-4.212 2.853,0 5.791,1.673 7.822,3.202 1.401,-1.22 3.106,-2.271 5.209,-3.093 1.777,-0.695 3.443,-0.998 5.003,-0.998 C 3.153,-15.999 1.837,-1.983 0,0 Z"
         style="fill:none;stroke:#000000;stroke-width:0.28299999;stroke-linecap:butt;stroke-linejoin:miter;stroke-miterlimit:10;stroke-dasharray:none;stroke-opacity:1"
         id="path148"
         inkscape:connector-curvature="0" /></g><g
       id="g150"
       transform="translate(780.51356,26.38171)"><path
         d="m 0,0 c -0.54,1.96 -2.208,2.915 -3.896,2.915 -2.071,0 -4.184,-1.434 -4.184,-4.369 0,-2.957 2.093,-4.39 4.205,-4.39 1.689,0 3.335,0.956 3.875,2.909"
         style="fill:none;stroke:#000000;stroke-width:1.41700006;stroke-linecap:butt;stroke-linejoin:miter;stroke-miterlimit:10;stroke-dasharray:none;stroke-opacity:1"
         id="path152"
         inkscape:connector-curvature="0" /></g><g
       id="g154"
       transform="translate(790.40026,20.53791)"><path
         d="m 0,0 c 2.227,-0.027 4.458,1.455 4.458,4.368 0,2.916 -2.209,4.391 -4.396,4.391 -2.23,0 -4.438,-1.454 -4.438,-4.391 C -4.376,1.476 -2.189,0.021 0,0 Z"
         style="fill:none;stroke:#000000;stroke-width:1.41700006;stroke-linecap:butt;stroke-linejoin:miter;stroke-miterlimit:10;stroke-dasharray:none;stroke-opacity:1"
         id="path156"
         inkscape:connector-curvature="0" /></g><g
       id="g158"
       transform="translate(805.94126,29.18541)"><path
         d="M 0,0 C -2.536,0.749 -4.947,-1.095 -4.947,-3.754 V -8.827"
         style="fill:none;stroke:#000000;stroke-width:1.41700006;stroke-linecap:butt;stroke-linejoin:miter;stroke-miterlimit:10;stroke-dasharray:none;stroke-opacity:1"
         id="path160"
         inkscape:connector-curvature="0" /></g><g
       id="g162"
       transform="translate(816.55946,20.35821)"><path
         d="M 0,0 V 4.999 C 0,7.303 -0.594,8.875 -3.206,8.918 -5.595,8.964 -6.913,7.256 -6.913,5.096 V 0"
         style="fill:none;stroke:#000000;stroke-width:1.41700006;stroke-linecap:butt;stroke-linejoin:miter;stroke-miterlimit:10;stroke-dasharray:none;stroke-opacity:1"
         id="path164"
         inkscape:connector-curvature="0" /></g><g
       id="g166"
       transform="translate(780.80646,14.56621)"><path
         d="m 0,0 c -1.039,0 -1.911,-0.345 -2.614,-1.031 -0.704,-0.688 -1.056,-1.535 -1.056,-2.543 0,-1.263 0.46,-2.303 1.379,-3.118 0.92,-0.816 2.1,-1.223 3.538,-1.223 0.848,0 1.643,0.159 2.387,0.479 0.743,0.32 1.355,0.759 1.835,1.32 0.095,0.111 0.168,0.187 0.216,0.227 0.047,0.039 0.103,0.061 0.168,0.061 h 0.359 c 0.112,0 0.196,-0.045 0.252,-0.133 0.057,-0.088 0.108,-0.26 0.156,-0.516 0.064,-0.319 0.096,-0.679 0.096,-1.079 0,-1.486 -0.312,-2.834 -0.936,-4.042 -0.624,-1.207 -1.503,-2.17 -2.638,-2.889 -1.135,-0.72 -2.438,-1.079 -3.91,-1.079 -1.487,0 -2.841,0.351 -4.065,1.054 -1.223,0.703 -2.199,1.711 -2.926,3.023 -0.728,1.311 -1.092,2.806 -1.092,4.485 0,1.567 0.329,2.971 0.984,4.209 0.655,1.239 1.591,2.215 2.806,2.927 1.215,0.711 2.623,1.067 4.221,1.067 1.199,0 2.279,-0.196 3.238,-0.588 C 3.358,0.22 4.121,-0.337 4.689,-1.056 5.257,-1.775 5.54,-2.6 5.54,-3.526 5.54,-4.598 5.156,-5.457 4.39,-6.104 3.622,-6.752 2.606,-7.076 1.343,-7.076 c -0.768,0 -1.467,0.148 -2.098,0.444 -0.633,0.295 -1.136,0.711 -1.512,1.246 -0.376,0.536 -0.563,1.148 -0.563,1.835 0,0.864 0.296,1.552 0.888,2.064 0.59,0.511 1.39,0.766 2.398,0.766 0.096,0.097 0.144,0.2 0.144,0.313 0,0.128 -0.056,0.227 -0.168,0.3 C 0.319,-0.036 0.176,0 0,0"
         style="fill:#000000;fill-opacity:1;fill-rule:nonzero;stroke:none"
         id="path168"
         inkscape:connector-curvature="0" /></g><g
       id="g170"
       transform="translate(780.80646,14.56621)"><path
         d="m 0,0 c -1.039,0 -1.911,-0.345 -2.614,-1.031 -0.704,-0.688 -1.056,-1.535 -1.056,-2.543 0,-1.263 0.46,-2.303 1.379,-3.118 0.92,-0.816 2.1,-1.223 3.538,-1.223 0.848,0 1.643,0.159 2.387,0.479 0.743,0.32 1.355,0.759 1.835,1.32 0.095,0.111 0.168,0.187 0.216,0.227 0.047,0.039 0.103,0.061 0.168,0.061 h 0.359 c 0.112,0 0.196,-0.045 0.252,-0.133 0.057,-0.088 0.108,-0.26 0.156,-0.516 0.064,-0.319 0.096,-0.679 0.096,-1.079 0,-1.486 -0.312,-2.834 -0.936,-4.042 -0.624,-1.207 -1.503,-2.17 -2.638,-2.889 -1.135,-0.72 -2.438,-1.079 -3.91,-1.079 -1.487,0 -2.841,0.351 -4.065,1.054 -1.223,0.703 -2.199,1.711 -2.926,3.023 -0.728,1.311 -1.092,2.806 -1.092,4.485 0,1.567 0.329,2.971 0.984,4.209 0.655,1.239 1.591,2.215 2.806,2.927 1.215,0.711 2.623,1.067 4.221,1.067 1.199,0 2.279,-0.196 3.238,-0.588 C 3.358,0.22 4.121,-0.337 4.689,-1.056 5.257,-1.775 5.54,-2.6 5.54,-3.526 5.54,-4.598 5.156,-5.457 4.39,-6.104 3.622,-6.752 2.606,-7.076 1.343,-7.076 c -0.768,0 -1.467,0.148 -2.098,0.444 -0.633,0.295 -1.136,0.711 -1.512,1.246 -0.376,0.536 -0.563,1.148 -0.563,1.835 0,0.864 0.296,1.552 0.888,2.064 0.59,0.511 1.39,0.766 2.398,0.766 0.096,0.097 0.144,0.2 0.144,0.313 0,0.128 -0.056,0.227 -0.168,0.3 C 0.319,-0.036 0.176,0 0,0 Z"
         style="fill:none;stroke:#000000;stroke-width:0.28299999;stroke-linecap:butt;stroke-linejoin:miter;stroke-miterlimit:10;stroke-dasharray:none;stroke-opacity:1"
         id="path172"
         inkscape:connector-curvature="0" /></g><g
       id="g174"
       transform="translate(788.72156,13.70201)"><path
         d="m 0,0 c 0,0.561 -0.08,0.987 -0.24,1.283 -0.159,0.296 -0.455,0.572 -0.887,0.828 -0.112,0.064 -0.18,0.116 -0.204,0.157 -0.023,0.039 -0.036,0.091 -0.036,0.155 v 0.288 c 0,0.16 0.096,0.24 0.288,0.24 h 6.212 c 0.304,0 0.515,-0.06 0.636,-0.18 C 5.889,2.65 5.948,2.455 5.948,2.184 v -5.469 c 0.783,0.974 1.871,1.463 3.263,1.463 1.15,0 2.03,-0.344 2.638,-1.032 0.607,-0.687 0.911,-1.663 0.911,-2.926 v -7.747 c 0,-0.272 -0.06,-0.467 -0.18,-0.587 -0.119,-0.12 -0.332,-0.181 -0.635,-0.181 H 7.627 c -0.304,0 -0.516,0.061 -0.635,0.181 -0.12,0.12 -0.18,0.315 -0.18,0.587 v 8.251 c 0,0.175 -0.041,0.319 -0.121,0.431 -0.08,0.112 -0.191,0.168 -0.335,0.168 -0.192,0 -0.328,-0.063 -0.408,-0.191 v -8.659 c 0,-0.272 -0.059,-0.467 -0.179,-0.587 -0.121,-0.12 -0.332,-0.181 -0.636,-0.181 H 0.815 c -0.303,0 -0.515,0.061 -0.635,0.181 -0.119,0.12 -0.18,0.315 -0.18,0.587 z"
         style="fill:#000000;fill-opacity:1;fill-rule:nonzero;stroke:none"
         id="path176"
         inkscape:connector-curvature="0" /></g><g
       id="g178"
       transform="translate(788.72156,13.70201)"><path
         d="m 0,0 c 0,0.561 -0.08,0.987 -0.24,1.283 -0.159,0.296 -0.455,0.572 -0.887,0.828 -0.112,0.064 -0.18,0.116 -0.204,0.157 -0.023,0.039 -0.036,0.091 -0.036,0.155 v 0.288 c 0,0.16 0.096,0.24 0.288,0.24 h 6.212 c 0.304,0 0.515,-0.06 0.636,-0.18 C 5.889,2.65 5.948,2.455 5.948,2.184 v -5.469 c 0.783,0.974 1.871,1.463 3.263,1.463 1.15,0 2.03,-0.344 2.638,-1.032 0.607,-0.687 0.911,-1.663 0.911,-2.926 v -7.747 c 0,-0.272 -0.06,-0.467 -0.18,-0.587 -0.119,-0.12 -0.332,-0.181 -0.635,-0.181 H 7.627 c -0.304,0 -0.516,0.061 -0.635,0.181 -0.12,0.12 -0.18,0.315 -0.18,0.587 v 8.251 c 0,0.175 -0.041,0.319 -0.121,0.431 -0.08,0.112 -0.191,0.168 -0.335,0.168 -0.192,0 -0.328,-0.063 -0.408,-0.191 v -8.659 c 0,-0.272 -0.059,-0.467 -0.179,-0.587 -0.121,-0.12 -0.332,-0.181 -0.636,-0.181 H 0.815 c -0.303,0 -0.515,0.061 -0.635,0.181 -0.119,0.12 -0.18,0.315 -0.18,0.587 z"
         style="fill:none;stroke:#000000;stroke-width:0.28299999;stroke-linecap:butt;stroke-linejoin:miter;stroke-miterlimit:10;stroke-dasharray:none;stroke-opacity:1"
         id="path180"
         inkscape:connector-curvature="0" /></g><g
       id="g182"
       transform="translate(809.15706,6.60241)"><path
         d="m 0,0 c 0.096,-0.128 0.224,-0.191 0.384,-0.191 0.288,0 0.431,0.159 0.431,0.479 v 3.406 c 0,0.32 -0.143,0.48 -0.431,0.48 C 0.224,4.174 0.096,4.109 0,3.982 Z m -0.72,-1.654 c 0,-0.368 0.312,-0.708 0.936,-1.02 0.624,-0.312 1.318,-0.468 2.086,-0.468 1.519,0 2.767,0.512 3.742,1.536 0.097,0.095 0.164,0.156 0.204,0.179 0.04,0.024 0.1,0.036 0.18,0.036 h 0.288 c 0.111,0 0.187,-0.04 0.227,-0.12 0.04,-0.08 0.061,-0.224 0.061,-0.431 C 7.004,-2.935 6.735,-3.85 6.2,-4.688 5.664,-5.528 4.904,-6.204 3.922,-6.716 2.938,-7.227 1.838,-7.483 0.623,-7.483 c -1.295,0 -2.462,0.264 -3.502,0.792 -1.039,0.527 -1.867,1.279 -2.481,2.254 -0.617,0.975 -0.924,2.087 -0.924,3.334 0,1.231 0.288,2.327 0.863,3.286 0.576,0.96 1.396,1.714 2.459,2.267 1.063,0.552 2.307,0.827 3.73,0.827 1.07,0 2.034,-0.168 2.889,-0.504 C 4.513,4.437 5.188,3.958 5.685,3.335 6.18,2.711 6.428,1.991 6.428,1.176 6.428,0.137 6.052,-0.723 5.301,-1.403 4.549,-2.082 3.598,-2.422 2.446,-2.422 c -1.151,0 -2.087,0.384 -2.806,1.151 -0.095,0 -0.18,-0.036 -0.251,-0.108 C -0.684,-1.45 -0.72,-1.543 -0.72,-1.654"
         style="fill:#000000;fill-opacity:1;fill-rule:nonzero;stroke:none"
         id="path184"
         inkscape:connector-curvature="0" /></g><g
       id="g186"
       transform="translate(809.15706,6.60241)"><path
         d="m 0,0 c 0.096,-0.128 0.224,-0.191 0.384,-0.191 0.288,0 0.431,0.159 0.431,0.479 v 3.406 c 0,0.32 -0.143,0.48 -0.431,0.48 C 0.224,4.174 0.096,4.109 0,3.982 Z m -0.72,-1.654 c 0,-0.368 0.312,-0.708 0.936,-1.02 0.624,-0.312 1.318,-0.468 2.086,-0.468 1.519,0 2.767,0.512 3.742,1.536 0.097,0.095 0.164,0.156 0.204,0.179 0.04,0.024 0.1,0.036 0.18,0.036 h 0.288 c 0.111,0 0.187,-0.04 0.227,-0.12 0.04,-0.08 0.061,-0.224 0.061,-0.431 C 7.004,-2.935 6.735,-3.85 6.2,-4.688 5.664,-5.528 4.904,-6.204 3.922,-6.716 2.938,-7.227 1.838,-7.483 0.623,-7.483 c -1.295,0 -2.462,0.264 -3.502,0.792 -1.039,0.527 -1.867,1.279 -2.481,2.254 -0.617,0.975 -0.924,2.087 -0.924,3.334 0,1.231 0.288,2.327 0.863,3.286 0.576,0.96 1.396,1.714 2.459,2.267 1.063,0.552 2.307,0.827 3.73,0.827 1.07,0 2.034,-0.168 2.889,-0.504 C 4.513,4.437 5.188,3.958 5.685,3.335 6.18,2.711 6.428,1.991 6.428,1.176 6.428,0.137 6.052,-0.723 5.301,-1.403 4.549,-2.082 3.598,-2.422 2.446,-2.422 c -1.151,0 -2.087,0.384 -2.806,1.151 -0.095,0 -0.18,-0.036 -0.251,-0.108 C -0.684,-1.45 -0.72,-1.543 -0.72,-1.654 Z"
         style="fill:none;stroke:#000000;stroke-width:0.28299999;stroke-linecap:butt;stroke-linejoin:miter;stroke-miterlimit:10;stroke-dasharray:none;stroke-opacity:1"
         id="path188"
         inkscape:connector-curvature="0" /></g><g
       id="g190"
       transform="translate(818.00666,11.59161)"><path
         d="m 0,0 c 1.375,0 2.312,-0.407 2.807,-1.224 0.463,0.512 0.983,0.892 1.558,1.14 0.576,0.248 1.239,0.372 1.991,0.372 1.167,0 2.127,-0.32 2.878,-0.96 0.751,-0.639 1.128,-1.455 1.128,-2.446 0,-0.831 -0.303,-1.507 -0.911,-2.027 C 8.843,-5.665 8.06,-5.924 7.1,-5.924 c -0.944,0 -1.715,0.239 -2.315,0.719 -0.599,0.479 -0.899,1.087 -0.899,1.823 0,0.624 0.216,1.136 0.648,1.535 0.431,0.4 0.983,0.6 1.654,0.6 0.048,0.08 0.073,0.16 0.073,0.24 0,0.224 -0.168,0.335 -0.504,0.335 -0.704,0 -1.312,-0.267 -1.823,-0.804 -0.512,-0.535 -0.768,-1.178 -0.768,-1.93 0,-0.639 0.181,-1.203 0.54,-1.691 0.359,-0.488 0.875,-0.875 1.547,-1.163 0.224,-0.095 0.372,-0.204 0.444,-0.324 0.072,-0.119 0.108,-0.324 0.108,-0.611 v -4.222 c 0,-0.512 -0.273,-0.768 -0.816,-0.768 H 0.12 c -0.496,0 -0.743,0.256 -0.743,0.768 v 8.467 c 0,0.559 -0.08,0.987 -0.24,1.283 -0.16,0.296 -0.456,0.571 -0.888,0.827 -0.111,0.065 -0.18,0.116 -0.203,0.156 -0.025,0.04 -0.036,0.092 -0.036,0.157 v 0.288 C -1.99,-0.08 -1.895,0 -1.702,0 Z"
         style="fill:#000000;fill-opacity:1;fill-rule:nonzero;stroke:none"
         id="path192"
         inkscape:connector-curvature="0" /></g><g
       id="g194"
       transform="translate(818.00666,11.59161)"><path
         d="m 0,0 c 1.375,0 2.312,-0.407 2.807,-1.224 0.463,0.512 0.983,0.892 1.558,1.14 0.576,0.248 1.239,0.372 1.991,0.372 1.167,0 2.127,-0.32 2.878,-0.96 0.751,-0.639 1.128,-1.455 1.128,-2.446 0,-0.831 -0.303,-1.507 -0.911,-2.027 C 8.843,-5.665 8.06,-5.924 7.1,-5.924 c -0.944,0 -1.715,0.239 -2.315,0.719 -0.599,0.479 -0.899,1.087 -0.899,1.823 0,0.624 0.216,1.136 0.648,1.535 0.431,0.4 0.983,0.6 1.654,0.6 0.048,0.08 0.073,0.16 0.073,0.24 0,0.224 -0.168,0.335 -0.504,0.335 -0.704,0 -1.312,-0.267 -1.823,-0.804 -0.512,-0.535 -0.768,-1.178 -0.768,-1.93 0,-0.639 0.181,-1.203 0.54,-1.691 0.359,-0.488 0.875,-0.875 1.547,-1.163 0.224,-0.095 0.372,-0.204 0.444,-0.324 0.072,-0.119 0.108,-0.324 0.108,-0.611 v -4.222 c 0,-0.512 -0.273,-0.768 -0.816,-0.768 H 0.12 c -0.496,0 -0.743,0.256 -0.743,0.768 v 8.467 c 0,0.559 -0.08,0.987 -0.24,1.283 -0.16,0.296 -0.456,0.571 -0.888,0.827 -0.111,0.065 -0.18,0.116 -0.203,0.156 -0.025,0.04 -0.036,0.092 -0.036,0.157 v 0.288 C -1.99,-0.08 -1.895,0 -1.702,0 Z"
         style="fill:none;stroke:#000000;stroke-width:0.28299999;stroke-linecap:butt;stroke-linejoin:miter;stroke-miterlimit:10;stroke-dasharray:none;stroke-opacity:1"
         id="path196"
         inkscape:connector-curvature="0" /></g><g
       id="g198"
       transform="translate(830.02326,11.59161)"><path
         d="m 0,0 c 1.375,0 2.312,-0.407 2.807,-1.224 0.463,0.512 0.983,0.892 1.558,1.14 0.576,0.248 1.239,0.372 1.991,0.372 1.167,0 2.127,-0.32 2.878,-0.96 0.752,-0.639 1.128,-1.455 1.128,-2.446 0,-0.831 -0.303,-1.507 -0.911,-2.027 C 8.843,-5.665 8.06,-5.924 7.1,-5.924 c -0.944,0 -1.715,0.239 -2.315,0.719 -0.599,0.479 -0.899,1.087 -0.899,1.823 0,0.624 0.216,1.136 0.648,1.535 0.432,0.4 0.983,0.6 1.654,0.6 0.049,0.08 0.073,0.16 0.073,0.24 0,0.224 -0.168,0.335 -0.504,0.335 -0.704,0 -1.312,-0.267 -1.823,-0.804 -0.512,-0.535 -0.768,-1.178 -0.768,-1.93 0,-0.639 0.181,-1.203 0.54,-1.691 0.359,-0.488 0.875,-0.875 1.547,-1.163 0.224,-0.095 0.372,-0.204 0.444,-0.324 0.072,-0.119 0.108,-0.324 0.108,-0.611 v -4.222 c 0,-0.512 -0.272,-0.768 -0.816,-0.768 H 0.12 c -0.495,0 -0.743,0.256 -0.743,0.768 v 8.467 c 0,0.559 -0.08,0.987 -0.24,1.283 -0.16,0.296 -0.456,0.571 -0.888,0.827 -0.111,0.065 -0.18,0.116 -0.203,0.156 -0.025,0.04 -0.036,0.092 -0.036,0.157 v 0.288 C -1.99,-0.08 -1.895,0 -1.702,0 Z"
         style="fill:#000000;fill-opacity:1;fill-rule:nonzero;stroke:none"
         id="path200"
         inkscape:connector-curvature="0" /></g><g
       id="g202"
       transform="translate(830.02326,11.59161)"><path
         d="m 0,0 c 1.375,0 2.312,-0.407 2.807,-1.224 0.463,0.512 0.983,0.892 1.558,1.14 0.576,0.248 1.239,0.372 1.991,0.372 1.167,0 2.127,-0.32 2.878,-0.96 0.752,-0.639 1.128,-1.455 1.128,-2.446 0,-0.831 -0.303,-1.507 -0.911,-2.027 C 8.843,-5.665 8.06,-5.924 7.1,-5.924 c -0.944,0 -1.715,0.239 -2.315,0.719 -0.599,0.479 -0.899,1.087 -0.899,1.823 0,0.624 0.216,1.136 0.648,1.535 0.432,0.4 0.983,0.6 1.654,0.6 0.049,0.08 0.073,0.16 0.073,0.24 0,0.224 -0.168,0.335 -0.504,0.335 -0.704,0 -1.312,-0.267 -1.823,-0.804 -0.512,-0.535 -0.768,-1.178 -0.768,-1.93 0,-0.639 0.181,-1.203 0.54,-1.691 0.359,-0.488 0.875,-0.875 1.547,-1.163 0.224,-0.095 0.372,-0.204 0.444,-0.324 0.072,-0.119 0.108,-0.324 0.108,-0.611 v -4.222 c 0,-0.512 -0.272,-0.768 -0.816,-0.768 H 0.12 c -0.495,0 -0.743,0.256 -0.743,0.768 v 8.467 c 0,0.559 -0.08,0.987 -0.24,1.283 -0.16,0.296 -0.456,0.571 -0.888,0.827 -0.111,0.065 -0.18,0.116 -0.203,0.156 -0.025,0.04 -0.036,0.092 -0.036,0.157 v 0.288 C -1.99,-0.08 -1.895,0 -1.702,0 Z"
         style="fill:none;stroke:#000000;stroke-width:0.28299999;stroke-linecap:butt;stroke-linejoin:miter;stroke-miterlimit:10;stroke-dasharray:none;stroke-opacity:1"
         id="path204"
         inkscape:connector-curvature="0" /></g><g
       id="g206"
       transform="translate(840.93736,9.50471)"><path
         d="m 0,0 c -0.097,0.272 -0.229,0.496 -0.396,0.672 -0.167,0.176 -0.419,0.368 -0.756,0.575 -0.16,0.097 -0.24,0.2 -0.24,0.313 v 0.288 c 0,0.159 0.096,0.239 0.288,0.239 h 3.742 c 1.087,0 1.89,-0.084 2.411,-0.251 C 5.568,1.667 5.976,1.375 6.271,0.96 6.567,0.544 6.852,-0.072 7.123,-0.887 l 2.303,-6.956 c 0.08,-0.08 0.176,-0.12 0.287,-0.12 0.24,0 0.36,0.136 0.36,0.407 0,0.16 -0.063,0.424 -0.191,0.792 L 7.723,-0.168 C 7.515,0.472 7.331,0.888 7.171,1.08 7.027,1.256 6.935,1.371 6.896,1.428 6.855,1.483 6.836,1.551 6.836,1.631 v 0.217 c 0,0.159 0.096,0.239 0.287,0.239 h 6.788 c 0.575,0 0.863,-0.208 0.863,-0.623 0,-0.384 -0.408,-1.695 -1.222,-3.934 -0.817,-2.239 -1.928,-5.086 -3.334,-8.539 -0.513,-1.263 -1.016,-2.243 -1.512,-2.938 -0.495,-0.696 -1.043,-1.191 -1.643,-1.488 -0.599,-0.294 -1.307,-0.443 -2.123,-0.443 -1.183,0 -2.138,0.265 -2.866,0.792 -0.727,0.527 -1.091,1.223 -1.091,2.086 0,0.752 0.295,1.359 0.887,1.823 0.592,0.464 1.359,0.696 2.303,0.696 0.88,0 1.598,-0.211 2.159,-0.635 0.56,-0.424 0.839,-0.973 0.839,-1.644 0,-0.511 -0.172,-0.907 -0.516,-1.187 -0.343,-0.28 -0.827,-0.42 -1.451,-0.42 -0.032,-0.064 -0.047,-0.135 -0.047,-0.215 0,-0.224 0.184,-0.337 0.551,-0.337 0.624,0 1.144,0.213 1.559,0.636 0.416,0.424 0.624,0.956 0.624,1.595 0,0.752 -0.264,1.372 -0.791,1.859 -0.528,0.488 -1.295,0.819 -2.303,0.995 -0.575,0.096 -0.952,0.225 -1.128,0.384 -0.176,0.16 -0.359,0.512 -0.552,1.055 z"
         style="fill:#000000;fill-opacity:1;fill-rule:nonzero;stroke:none"
         id="path208"
         inkscape:connector-curvature="0" /></g><g
       id="g210"
       transform="translate(840.93736,9.50471)"><path
         d="m 0,0 c -0.097,0.272 -0.229,0.496 -0.396,0.672 -0.167,0.176 -0.419,0.368 -0.756,0.575 -0.16,0.097 -0.24,0.2 -0.24,0.313 v 0.288 c 0,0.159 0.096,0.239 0.288,0.239 h 3.742 c 1.087,0 1.89,-0.084 2.411,-0.251 C 5.568,1.667 5.976,1.375 6.271,0.96 6.567,0.544 6.852,-0.072 7.123,-0.887 l 2.303,-6.956 c 0.08,-0.08 0.176,-0.12 0.287,-0.12 0.24,0 0.36,0.136 0.36,0.407 0,0.16 -0.063,0.424 -0.191,0.792 L 7.723,-0.168 C 7.515,0.472 7.331,0.888 7.171,1.08 7.027,1.256 6.935,1.371 6.896,1.428 6.855,1.483 6.836,1.551 6.836,1.631 v 0.217 c 0,0.159 0.096,0.239 0.287,0.239 h 6.788 c 0.575,0 0.863,-0.208 0.863,-0.623 0,-0.384 -0.408,-1.695 -1.222,-3.934 -0.817,-2.239 -1.928,-5.086 -3.334,-8.539 -0.513,-1.263 -1.016,-2.243 -1.512,-2.938 -0.495,-0.696 -1.043,-1.191 -1.643,-1.488 -0.599,-0.294 -1.307,-0.443 -2.123,-0.443 -1.183,0 -2.138,0.265 -2.866,0.792 -0.727,0.527 -1.091,1.223 -1.091,2.086 0,0.752 0.295,1.359 0.887,1.823 0.592,0.464 1.359,0.696 2.303,0.696 0.88,0 1.598,-0.211 2.159,-0.635 0.56,-0.424 0.839,-0.973 0.839,-1.644 0,-0.511 -0.172,-0.907 -0.516,-1.187 -0.343,-0.28 -0.827,-0.42 -1.451,-0.42 -0.032,-0.064 -0.047,-0.135 -0.047,-0.215 0,-0.224 0.184,-0.337 0.551,-0.337 0.624,0 1.144,0.213 1.559,0.636 0.416,0.424 0.624,0.956 0.624,1.595 0,0.752 -0.264,1.372 -0.791,1.859 -0.528,0.488 -1.295,0.819 -2.303,0.995 -0.575,0.096 -0.952,0.225 -1.128,0.384 -0.176,0.16 -0.359,0.512 -0.552,1.055 z"
         style="fill:none;stroke:#000000;stroke-width:0.28299999;stroke-linecap:butt;stroke-linejoin:miter;stroke-miterlimit:10;stroke-dasharray:none;stroke-opacity:1"
         id="path212"
         inkscape:connector-curvature="0" /></g><g
       id="g214"
       transform="translate(820.43246,25.41591)"><path
         d="m 0,0 h 7.937 c 0,2.004 -1.413,3.881 -3.896,3.881 -2.071,0 -4.185,-1.434 -4.185,-4.37 0,-2.956 2.093,-4.389 4.206,-4.389 1.689,0 3.334,0.956 3.875,2.909"
         style="fill:none;stroke:#000000;stroke-width:1.41700006;stroke-linecap:butt;stroke-linejoin:miter;stroke-miterlimit:10;stroke-dasharray:none;stroke-opacity:1"
         id="path216"
         inkscape:connector-curvature="0" /></g><path
       inkscape:connector-curvature="0"
       id="path416"
       style="fill:none;stroke:#ff0000;stroke-width:0.28299999;stroke-linecap:round;stroke-linejoin:round;stroke-miterlimit:10;stroke-dasharray:none;stroke-opacity:1"
       d="m 769.1988,557.9191 v -134.239 c 0.17,-1.482 0.834,-2.215 1.812,-3.067 l 53.403,-30.774 c 1.147,-0.483 2.469,0.057 2.951,1.204 0.07,0.169 0.121,0.347 0.148,0.527 l -0.002,166.32 c 0,0.782 -0.635,1.417 -1.417,1.417 l -55.477,0.031 c -0.783,-0.001 -1.417,-0.636 -1.418,-1.419" /><path
       inkscape:connector-curvature="0"
       id="path420"
       style="fill:none;stroke:#ff0000;stroke-width:0.28299999;stroke-linecap:round;stroke-linejoin:round;stroke-miterlimit:10;stroke-dasharray:none;stroke-opacity:1"
       d="m 776.2213,424.7657 c 0,1.723 1.396,3.118 3.118,3.118 1.722,0 3.118,-1.395 3.118,-3.118 0,-1.722 -1.396,-3.118 -3.118,-3.118 -1.722,0 -3.118,1.396 -3.118,3.118 z" /><path
       inkscape:connector-curvature="0"
       id="path424"
       style="fill:none;stroke:#ff0000;stroke-width:0.28299999;stroke-linecap:round;stroke-linejoin:round;stroke-miterlimit:10;stroke-dasharray:none;stroke-opacity:1"
       d="m 817.3257,400.67 c 0,1.722 1.396,3.118 3.119,3.118 1.722,0 3.118,-1.396 3.118,-3.118 0,-1.723 -1.396,-3.118 -3.118,-3.118 -1.723,0 -3.119,1.395 -3.119,3.118 z" /><path
       inkscape:connector-curvature="0"
       id="path428"
       style="fill:none;stroke:#000000;stroke-width:0.072;stroke-linecap:round;stroke-linejoin:round;stroke-miterlimit:4;stroke-dasharray:none;stroke-opacity:1"
       d="m 58.9593,593.48802 v -134.239 c -0.169,-1.483 -0.834,-2.215 -1.811,-3.067 l -53.4040004,-30.774 c -1.147,-0.482 -2.468,0.057 -2.951,1.204 -0.07,0.169 -0.121,0.346 -0.148,0.527 l 0.002,166.32 c 0,0.782 0.635,1.417 1.418,1.417 l 55.4760004,0.031 c 0.783,-0.002 1.418,-0.637 1.418,-1.419" /><path
       inkscape:connector-curvature="0"
       id="path432"
       style="fill:none;stroke:#000000;stroke-width:0.072;stroke-linecap:round;stroke-linejoin:round;stroke-miterlimit:4;stroke-dasharray:none;stroke-opacity:1"
       d="m 51.9374,460.33472 c 0,1.723 -1.396,3.118 -3.118,3.118 -1.722,0 -3.119,-1.395 -3.119,-3.118 0,-1.722 1.397,-3.118 3.119,-3.118 1.722,0 3.118,1.396 3.118,3.118 z" /><path
       inkscape:connector-curvature="0"
       id="path436"
       style="fill:none;stroke:#000000;stroke-width:0.072;stroke-linecap:round;stroke-linejoin:round;stroke-miterlimit:4;stroke-dasharray:none;stroke-opacity:1"
       d="m 10.8324,436.23902 c 0,1.722 -1.396,3.118 -3.119,3.118 -1.722,0 -3.118,-1.396 -3.118,-3.118 0,-1.723 1.396,-3.119 3.118,-3.119 1.723,0 3.119,1.396 3.119,3.119 z" /><path
       style="fill:none;stroke:#000000;stroke-width:0.072;stroke-miterlimit:4;stroke-dasharray:none;stroke-opacity:1"
       d="m -45.853333,-580.04132 h 31.426854 v 71.92686 h -31.426854 z"
       id="rect694"
       transform="scale(-1)" /><g
       id="g1824"><path
         style="color:#000000;font-style:normal;font-variant:normal;font-weight:normal;font-stretch:normal;font-size:medium;line-height:normal;font-family:sans-serif;font-variant-ligatures:normal;font-variant-position:normal;font-variant-caps:normal;font-variant-numeric:normal;font-variant-alternates:normal;font-feature-settings:normal;text-indent:0;text-align:start;text-decoration:none;text-decoration-line:none;text-decoration-style:solid;text-decoration-color:#000000;letter-spacing:normal;word-spacing:normal;text-transform:none;writing-mode:lr-tb;direction:ltr;text-orientation:mixed;dominant-baseline:auto;baseline-shift:baseline;text-anchor:start;white-space:normal;shape-padding:0;clip-rule:nonzero;display:inline;overflow:visible;visibility:visible;opacity:1;isolation:auto;mix-blend-mode:normal;color-interpolation:sRGB;color-interpolation-filters:linearRGB;solid-color:#000000;solid-opacity:1;vector-effect:none;fill:#000000;fill-opacity:1;fill-rule:nonzero;stroke:none;stroke-width:0.72000003;stroke-linecap:butt;stroke-linejoin:miter;stroke-miterlimit:4;stroke-dasharray:none;stroke-dashoffset:0;stroke-opacity:1;color-rendering:auto;image-rendering:auto;shape-rendering:auto;text-rendering:auto;enable-background:accumulate"
         d="m 114.43907,659.8559 c 0.66788,0 1.37619,0.13311 2.1211,0.43164 0.77367,0.30972 1.38377,0.72522 1.93164,1.17578 0.82747,-0.60865 1.92836,-1.2461 3.11523,-1.2461 1.13129,0 2.18323,0.63157 3.0586,1.62696 0.56818,-0.44838 1.38607,-0.98047 2.4414,-0.98047 0.8841,0 1.76976,0.50598 2.49024,1.39844 0.72204,0.88765 1.27028,2.14362 1.4707,3.58203 v 0.002 c 0.0552,0.40084 0.0801,0.79293 0.0801,1.17578 0,1.27559 -0.29648,2.42812 -0.80274,3.28516 l -0.002,0.002 c -0.51345,0.85577 -1.21763,1.40439 -2.0332,1.52539 -8.5e-4,1.3e-4 -10e-4,0.002 -0.002,0.002 -0.11791,0.0199 -0.22935,0.0254 -0.33398,0.0254 h -0.0117 c -0.18442,-10e-6 -0.36791,-0.0238 -0.55274,-0.0703 l -0.32422,-0.0801 0.0566,-0.33007 c 0.3867,-2.22543 -0.0606,-3.83484 -0.68359,-5.17383 0.11788,0.62478 0.37189,1.15498 0.38477,1.83398 v 0.004 0.26758 c 0.005,2.15014 -0.55522,4.09154 -1.46094,5.49609 v 0.002 c -0.9083,1.40375 -2.14661,2.25092 -3.5,2.28321 -0.001,3e-5 -0.003,0.002 -0.004,0.002 -0.0269,0.001 -0.0617,0.004 -0.0762,0.004 -0.45134,0 -0.89393,-0.0931 -1.31836,-0.26758 l -0.34766,-0.14258 0.15821,-0.3418 c 0.48854,-1.04614 1.03981,-2.73021 1.16796,-4.55468 0.0735,-1.0471 -0.0588,-2.1218 -0.34375,-3.17383 0.005,0.14583 0.0547,0.28593 0.0547,0.43164 0,2.49223 -0.66099,4.87067 -1.11523,6.04297 h 0.002 c -0.56894,1.48155 -1.38304,2.7856 -2.35547,3.71679 -0.9664,0.92978 -2.08964,1.48047 -3.28125,1.48047 -0.55135,0 -1.13089,-0.11945 -1.7207,-0.3789 l -0.002,-0.002 c -0.79616,-0.35315 -1.34798,-0.80572 -1.70313,-1.33398 l -0.002,-0.002 h -0.002 c -0.34738,-0.52865 -0.51302,-1.15244 -0.51367,-1.8711 v -0.002 c -0.0103,-1.38231 0.6142,-3.10992 1.70508,-5.07813 l 0.002,-0.002 c 1.08441,-1.97241 1.58965,-3.70191 1.59375,-4.95898 -2.7e-4,-0.5755 -0.10511,-1.04746 -0.3418,-1.41407 -0.22221,-0.34278 -0.62771,-0.55664 -1.05273,-0.55664 -0.7893,0 -1.33935,0.52432 -1.72852,1.20703 -0.38878,0.68205 -0.56103,1.52476 -0.55468,1.82422 0,3e-4 -1e-5,0.002 0,0.002 v 0.0195 l -0.70118,-0.004 c -0.003,-0.005 -0.003,-0.0145 -0.006,-0.0195 h -0.008 c -4e-5,-0.003 0.004,-0.009 0.004,-0.0117 -0.20992,-0.33715 -0.36564,-0.72554 -0.41797,-1.30273 -0.0629,-0.69395 -0.009,-1.5296 0.27149,-2.35157 0.56092,-1.64392 2.10385,-3.19921 5.19336,-3.19921 z m 0,0.71875 c -2.85917,0 -4.02978,1.30043 -4.51172,2.71289 -0.24097,0.70622 -0.29105,1.44909 -0.23632,2.05273 0.009,0.0953 0.0356,0.0934 0.0508,0.18164 0.10588,-0.34655 0.0834,-0.61976 0.28906,-0.98047 0.4612,-0.80907 1.2423,-1.56836 2.35547,-1.56836 0.66176,0 1.29333,0.32298 1.65625,0.88282 0.33793,0.52226 0.45703,1.1452 0.45703,1.80859 -0.005,1.44371 -0.55883,3.26155 -1.6836,5.30664 -1.06071,1.91329 -1.62622,3.5738 -1.61718,4.72656 v 0.002 c 0,0.61311 0.13195,1.07298 0.39843,1.47851 0.26985,0.40007 0.69575,0.76339 1.39649,1.07422 0.50577,0.22219 0.98308,0.32031 1.42969,0.32031 0.97082,0 1.91196,-0.44491 2.78125,-1.28125 h 0.002 c 0.87358,-0.83654 1.64471,-2.05886 2.18164,-3.45703 0.41948,-1.08258 1.0664,-3.42026 1.0664,-5.7832 0,-0.95325 -0.11314,-1.91046 -0.35351,-2.80664 l 0.64258,-0.29883 c 0.0251,0.0362 0.0245,0.0788 0.0488,0.11523 l 0.004,-0.002 c 0.001,0.004 7.7e-4,0.009 0.002,0.0137 1.19904,1.80049 1.51583,3.87773 1.38281,5.77149 -0.12252,1.74425 -0.60466,3.27148 -1.08203,4.39258 0.23283,0.064 0.46442,0.14257 0.70312,0.14257 0.0238,0 0.0396,-0.002 0.0117,0.002 l 0.0254,-0.004 0.0234,-0.002 c 1.06419,-0.024 2.09366,-0.68845 2.91406,-1.95508 l 0.002,-0.002 c 0.81369,-1.26285 1.34838,-3.0825 1.34375,-5.10547 v -0.25782 c -0.0277,-1.46281 -0.33538,-2.81148 -0.82031,-3.92773 l 0.60547,-0.375 c 0.0185,0.0219 0.0323,0.0675 0.0508,0.0898 l 0.004,-0.002 c 0.002,0.005 0.002,0.0125 0.004,0.0176 1.18346,1.43367 2.377,3.86887 1.90625,7.27344 0.0294,0.002 0.0605,0.0117 0.0898,0.0117 h 0.0117 c 0.0833,0 0.14897,-0.005 0.21875,-0.0176 h 0.006 0.006 c 0.56586,-0.0833 1.08229,-0.45818 1.51953,-1.18555 0.42391,-0.71764 0.70508,-1.7562 0.70508,-2.91797 0,-0.35113 -0.0237,-0.71076 -0.0742,-1.07812 -0.18348,-1.31682 -0.69298,-2.46257 -1.31641,-3.22852 l -0.002,-0.002 c -0.62309,-0.77184 -1.32472,-1.13086 -1.92968,-1.13086 -0.91014,0 -1.73886,0.56228 -2.23438,0.98437 l -0.28711,0.24414 -0.23047,-0.29492 c -0.81614,-1.04227 -1.78057,-1.57812 -2.74804,-1.57812 -0.98988,0 -2.11368,0.63068 -2.88868,1.22851 l -0.23828,0.1836 -0.22265,-0.19922 c -0.52528,-0.4687 -1.16449,-0.87492 -1.96485,-1.19532 -0.66783,-0.26763 -1.28117,-0.38085 -1.85351,-0.38085 z m -5.05273,6.15234 0.006,0.0137 h -0.01 c -8e-5,-0.003 0.004,-0.0103 0.004,-0.0137 z"
         id="path1743"
         inkscape:connector-curvature="0" /><path
         style="color:#000000;font-style:normal;font-variant:normal;font-weight:normal;font-stretch:normal;font-size:medium;line-height:normal;font-family:sans-serif;font-variant-ligatures:normal;font-variant-position:normal;font-variant-caps:normal;font-variant-numeric:normal;font-variant-alternates:normal;font-feature-settings:normal;text-indent:0;text-align:start;text-decoration:none;text-decoration-line:none;text-decoration-style:solid;text-decoration-color:#000000;letter-spacing:normal;word-spacing:normal;text-transform:none;writing-mode:lr-tb;direction:ltr;text-orientation:mixed;dominant-baseline:auto;baseline-shift:baseline;text-anchor:start;white-space:normal;shape-padding:0;clip-rule:nonzero;display:inline;overflow:visible;visibility:visible;opacity:1;isolation:auto;mix-blend-mode:normal;color-interpolation:sRGB;color-interpolation-filters:linearRGB;solid-color:#000000;solid-opacity:1;vector-effect:none;fill:#000000;fill-opacity:1;fill-rule:nonzero;stroke:none;stroke-width:0.72000003;stroke-linecap:butt;stroke-linejoin:miter;stroke-miterlimit:4;stroke-dasharray:none;stroke-dashoffset:0;stroke-opacity:1;color-rendering:auto;image-rendering:auto;shape-rendering:auto;text-rendering:auto;enable-background:accumulate"
         d="m 86.259391,669.87738 c -0.50326,0 -1.01219,0.17502 -1.39844,0.54102 -0.386252,0.36599 -0.632812,0.92053 -0.632812,1.60546 0,0.68209 0.249076,1.23748 0.634762,1.60157 0.38569,0.36408 0.89192,0.53906 1.38868,0.53906 0.809799,0 1.639219,-0.50359 1.89453,-1.45313 l -0.69532,-0.1875 c -0.174,0.64715 -0.66783,0.91993 -1.19921,0.91993 -0.32648,0 -0.65425,-0.11693 -0.89454,-0.34375 -0.24028,-0.22683 -0.41015,-0.5628 -0.41015,-1.07618 0,-0.51909 0.16858,-0.85693 0.4082,-1.08398 0.23962,-0.22705 0.56802,-0.34375 0.9043,-0.34375 0.53219,0 1.01699,0.27356 1.1914,0.91992 l 0.69532,-0.1875 c -0.254901,-0.9446 -1.07614,-1.45117 -1.88672,-1.45117 z"
         id="path1745"
         inkscape:connector-curvature="0" /><path
         style="color:#000000;font-style:normal;font-variant:normal;font-weight:normal;font-stretch:normal;font-size:medium;line-height:normal;font-family:sans-serif;font-variant-ligatures:normal;font-variant-position:normal;font-variant-caps:normal;font-variant-numeric:normal;font-variant-alternates:normal;font-feature-settings:normal;text-indent:0;text-align:start;text-decoration:none;text-decoration-line:none;text-decoration-style:solid;text-decoration-color:#000000;letter-spacing:normal;word-spacing:normal;text-transform:none;writing-mode:lr-tb;direction:ltr;text-orientation:mixed;dominant-baseline:auto;baseline-shift:baseline;text-anchor:start;white-space:normal;shape-padding:0;clip-rule:nonzero;display:inline;overflow:visible;visibility:visible;opacity:1;isolation:auto;mix-blend-mode:normal;color-interpolation:sRGB;color-interpolation-filters:linearRGB;solid-color:#000000;solid-opacity:1;vector-effect:none;fill:#000000;fill-opacity:1;fill-rule:nonzero;stroke:none;stroke-width:0.72000003;stroke-linecap:butt;stroke-linejoin:miter;stroke-miterlimit:4;stroke-dasharray:none;stroke-dashoffset:0;stroke-opacity:1;color-rendering:auto;image-rendering:auto;shape-rendering:auto;text-rendering:auto;enable-background:accumulate"
         d="m 91.724231,669.87738 c -0.515011,0.005 -1.035,0.18237 -1.43359,0.54492 -0.39907,0.36299 -0.66016,0.91608 -0.66016,1.59375 0,0.68601 0.263509,1.24489 0.66797,1.60938 0.40446,0.36448 0.931849,0.53906 1.455079,0.53906 0.51776,0 1.04203,-0.17775 1.44336,-0.54297 0.40133,-0.36522 0.664061,-0.9231 0.664061,-1.60547 0,-0.68308 -0.26728,-1.24304 -0.67383,-1.60742 -0.40607,-0.36395 -0.93557,-0.53711 -1.46094,-0.53125 z m 0.008,0.71875 h 0.002 c 0.35967,-0.004 0.71458,0.11829 0.97266,0.34961 0.258081,0.23132 0.435541,0.56647 0.435541,1.07031 0,0.50496 -0.17669,0.84026 -0.43164,1.07227 -0.25495,0.23201 -0.605051,0.35547 -0.957031,0.35547 -0.362809,0 -0.716759,-0.12097 -0.97265,-0.35157 -0.2559,-0.2306 -0.43164,-0.56631 -0.43164,-1.07617 0,-0.50069 0.17284,-0.83243 0.42578,-1.0625 0.25294,-0.23007 0.602501,-0.35394 0.957031,-0.35742 z"
         id="path1747"
         inkscape:connector-curvature="0" /><path
         style="color:#000000;font-style:normal;font-variant:normal;font-weight:normal;font-stretch:normal;font-size:medium;line-height:normal;font-family:sans-serif;font-variant-ligatures:normal;font-variant-position:normal;font-variant-caps:normal;font-variant-numeric:normal;font-variant-alternates:normal;font-feature-settings:normal;text-indent:0;text-align:start;text-decoration:none;text-decoration-line:none;text-decoration-style:solid;text-decoration-color:#000000;letter-spacing:normal;word-spacing:normal;text-transform:none;writing-mode:lr-tb;direction:ltr;text-orientation:mixed;dominant-baseline:auto;baseline-shift:baseline;text-anchor:start;white-space:normal;shape-padding:0;clip-rule:nonzero;display:inline;overflow:visible;visibility:visible;opacity:1;isolation:auto;mix-blend-mode:normal;color-interpolation:sRGB;color-interpolation-filters:linearRGB;solid-color:#000000;solid-opacity:1;vector-effect:none;fill:#000000;fill-opacity:1;fill-rule:nonzero;stroke:none;stroke-width:0.72000003;stroke-linecap:butt;stroke-linejoin:miter;stroke-miterlimit:4;stroke-dasharray:none;stroke-dashoffset:0;stroke-opacity:1;color-rendering:auto;image-rendering:auto;shape-rendering:auto;text-rendering:auto;enable-background:accumulate"
         d="m 95.579701,670.16449 v 2.06445 c 0,1.29567 1.206029,2.24577 2.43164,1.875 l -0.20898,-0.68945 c -0.791341,0.23939 -1.50196,-0.31429 -1.50196,-1.18555 v -2.06445 z"
         id="path1749"
         inkscape:connector-curvature="0" /><path
         style="color:#000000;font-style:normal;font-variant:normal;font-weight:normal;font-stretch:normal;font-size:medium;line-height:normal;font-family:sans-serif;font-variant-ligatures:normal;font-variant-position:normal;font-variant-caps:normal;font-variant-numeric:normal;font-variant-alternates:normal;font-feature-settings:normal;text-indent:0;text-align:start;text-decoration:none;text-decoration-line:none;text-decoration-style:solid;text-decoration-color:#000000;letter-spacing:normal;word-spacing:normal;text-transform:none;writing-mode:lr-tb;direction:ltr;text-orientation:mixed;dominant-baseline:auto;baseline-shift:baseline;text-anchor:start;white-space:normal;shape-padding:0;clip-rule:nonzero;display:inline;overflow:visible;visibility:visible;opacity:1;isolation:auto;mix-blend-mode:normal;color-interpolation:sRGB;color-interpolation-filters:linearRGB;solid-color:#000000;solid-opacity:1;vector-effect:none;fill:#000000;fill-opacity:1;fill-rule:nonzero;stroke:none;stroke-width:0.72000003;stroke-linecap:butt;stroke-linejoin:miter;stroke-miterlimit:4;stroke-dasharray:none;stroke-dashoffset:0;stroke-opacity:1;color-rendering:auto;image-rendering:auto;shape-rendering:auto;text-rendering:auto;enable-background:accumulate"
         d="m 99.019151,670.16254 v 2.07617 c 0,0.51153 0.1539,0.99595 0.47266,1.35547 0.31876,0.35951 0.805299,0.57384 1.369139,0.5625 0.5918,-0.0105 1.05947,-0.23079 1.31641,-0.61133 0.25725,-0.381 0.31054,-0.84633 0.31054,-1.3457 v -2.03711 h -0.7207 v 2.03711 c 0,0.43908 -0.0653,0.76326 -0.18555,0.9414 -0.12028,0.17814 -0.28851,0.2874 -0.73437,0.29492 h -0.002 c -0.3854,0.008 -0.63395,-0.11672 -0.81445,-0.32031 -0.180509,-0.20359 -0.291019,-0.50827 -0.291019,-0.87695 v -2.07617 z"
         id="path1751"
         inkscape:connector-curvature="0" /><path
         style="color:#000000;font-style:normal;font-variant:normal;font-weight:normal;font-stretch:normal;font-size:medium;line-height:normal;font-family:sans-serif;font-variant-ligatures:normal;font-variant-position:normal;font-variant-caps:normal;font-variant-numeric:normal;font-variant-alternates:normal;font-feature-settings:normal;text-indent:0;text-align:start;text-decoration:none;text-decoration-line:none;text-decoration-style:solid;text-decoration-color:#000000;letter-spacing:normal;word-spacing:normal;text-transform:none;writing-mode:lr-tb;direction:ltr;text-orientation:mixed;dominant-baseline:auto;baseline-shift:baseline;text-anchor:start;white-space:normal;shape-padding:0;clip-rule:nonzero;display:inline;overflow:visible;visibility:visible;opacity:1;isolation:auto;mix-blend-mode:normal;color-interpolation:sRGB;color-interpolation-filters:linearRGB;solid-color:#000000;solid-opacity:1;vector-effect:none;fill:#000000;fill-opacity:1;fill-rule:nonzero;stroke:none;stroke-width:0.72000003;stroke-linecap:butt;stroke-linejoin:miter;stroke-miterlimit:4;stroke-dasharray:none;stroke-dashoffset:0;stroke-opacity:1;color-rendering:auto;image-rendering:auto;shape-rendering:auto;text-rendering:auto;enable-background:accumulate"
         d="m 105.28087,669.87738 c -0.50319,0 -1.0102,0.17506 -1.39648,0.54102 -0.38628,0.36595 -0.63477,0.92036 -0.63477,1.60546 0,0.68205 0.25107,1.23746 0.63672,1.60157 0.38565,0.36411 0.8898,0.53906 1.38672,0.53906 1.17291,0 1.9082,-0.96012 1.9082,-1.94141 v -0.35937 h -3.15039 c 0.0407,-0.3982 0.14348,-0.73039 0.34766,-0.92383 0.23959,-0.22699 0.566,-0.34375 0.90234,-0.34375 0.5322,0 1.01857,0.27334 1.19336,0.91992 l 0.69531,-0.1875 c -0.2553,-0.94439 -1.07809,-1.45117 -1.88867,-1.45117 z m -1.09765,2.70703 h 2.15429 c -0.12997,0.46926 -0.43259,0.85938 -1.06445,0.85938 -0.32672,0 -0.65236,-0.115 -0.89258,-0.3418 -0.11535,-0.10891 -0.12538,-0.35074 -0.19726,-0.51758 z"
         id="path1753"
         inkscape:connector-curvature="0" /><path
         inkscape:connector-curvature="0"
         id="path1755"
         style="fill:none;stroke:#000000;stroke-width:0.072;stroke-linecap:round;stroke-linejoin:round;stroke-miterlimit:4;stroke-dasharray:none;stroke-opacity:1"
         d="m 76.209382,771.5025 v -134.239 c 0.169,-1.483 0.834,-2.215 1.810999,-3.067 l 53.403999,-30.774 c 1.147,-0.482 2.468,0.057 2.951,1.204 0.07,0.169 0.121,0.346 0.148,0.527 l -0.002,166.32 c 0,0.782 -0.635,1.417 -1.418,1.417 l -55.475999,0.031 c -0.783,-0.002 -1.418,-0.637 -1.418,-1.419" /><path
         inkscape:connector-curvature="0"
         id="path1757"
         style="fill:none;stroke:#000000;stroke-width:0.072;stroke-linecap:round;stroke-linejoin:round;stroke-miterlimit:4;stroke-dasharray:none;stroke-opacity:1"
         d="m 83.231282,638.3492 c 0,1.723 1.396,3.118 3.118,3.118 1.721999,0 3.119,-1.395 3.119,-3.118 0,-1.722 -1.397001,-3.118 -3.119,-3.118 -1.722,0 -3.118,1.396 -3.118,3.118 z" /><path
         inkscape:connector-curvature="0"
         id="path1759"
         style="fill:none;stroke:#000000;stroke-width:0.072;stroke-linecap:round;stroke-linejoin:round;stroke-miterlimit:4;stroke-dasharray:none;stroke-opacity:1"
         d="m 124.33628,614.2535 c 0,1.722 1.396,3.118 3.119,3.118 1.722,0 3.118,-1.396 3.118,-3.118 0,-1.723 -1.396,-3.119 -3.118,-3.119 -1.723,0 -3.119,1.396 -3.119,3.119 z" /><path
         inkscape:connector-curvature="0"
         style="fill:none;stroke:#000000;stroke-width:0.072;stroke-miterlimit:4;stroke-dasharray:none;stroke-opacity:1"
         d="M 89.315352,758.0558 H 120.7422 V 686.12894 H 89.315352 Z"
         id="path1761" /></g><path
       inkscape:connector-curvature="0"
       style="fill:none;stroke:#000000;stroke-width:0.072;stroke-miterlimit:4;stroke-dasharray:none;stroke-opacity:1"
       d="M 34.286648,758.91117 H 65.713496 V 686.98431 H 34.286648 Z"
       id="path1810" /><path
       id="path1812"
       d="M -9.2133521,758.91117 H 22.213496 V 686.98431 H -9.2133521 Z"
       style="fill:none;stroke:#000000;stroke-width:0.072;stroke-miterlimit:4;stroke-dasharray:none;stroke-opacity:1"
       inkscape:connector-curvature="0" /></g></svg>